<?xml version="1.0" encoding="utf-8"?>
<!-- Generator: Adobe Illustrator 23.0.2, SVG Export Plug-In . SVG Version: 6.00 Build 0)  -->
<svg version="1.1" id="Layer_1" xmlns="http://www.w3.org/2000/svg" xmlns:xlink="http://www.w3.org/1999/xlink" x="0px" y="0px"
	 viewBox="0 0 400 400" style="enable-background:new 0 0 400 400;" xml:space="preserve">
<style type="text/css">
	.st0{fill:none;stroke:#DB504A;stroke-width:2;stroke-miterlimit:10;}
	.st1{fill:#DB504A;}
</style>
<path class="st0" d="M89,200c0-61.3,49.7-111,111-111c52.06,0,95.76,35.85,107.74,84.2"/>
<path class="st0" d="M311,200c0,61.3-49.7,111-111,111c-53.64,0-98.39-38.05-108.74-88.63"/>
<g>
	<path class="st1" d="M90.5,212.46c-0.26,0-0.52-0.1-0.71-0.27L64.37,189.8c-0.52-0.46-0.36-1.03-0.3-1.19
		c0.06-0.16,0.32-0.7,1.01-0.7h50.83c0.69,0,0.95,0.53,1.01,0.7c0.06,0.16,0.22,0.73-0.3,1.19l-25.42,22.39
		C91.02,212.36,90.76,212.46,90.5,212.46z"/>
	<path class="st1" d="M115.92,188.91l0.04,0c0.02,0.01,0.05,0.08,0.01,0.14l-25.42,22.38c-0.01,0.01-0.02,0.02-0.05,0.02
		s-0.05-0.01-0.05-0.02L65,189.02c-0.01-0.03,0.02-0.09,0.08-0.11H115.92 M115.92,186.91H65.08c-1.92,0-2.81,2.37-1.37,3.64
		l25.42,22.38c0.39,0.35,0.88,0.52,1.37,0.52s0.98-0.17,1.37-0.52l25.42-22.38C118.73,189.28,117.83,186.91,115.92,186.91
		L115.92,186.91z"/>
</g>
<g>
	<path class="st1" d="M285.08,212.54c-0.69,0-0.95-0.53-1.01-0.7c-0.06-0.16-0.22-0.73,0.3-1.19l25.42-22.38
		c0.2-0.17,0.45-0.27,0.71-0.27s0.52,0.1,0.71,0.27l25.42,22.38c0.52,0.46,0.36,1.03,0.3,1.19c-0.06,0.16-0.32,0.7-1.01,0.7H285.08z
		"/>
	<path class="st1" d="M310.5,189c0.03,0,0.05,0.01,0.05,0.02L336,211.44c0.01,0.03-0.02,0.09-0.08,0.11l-50.88,0
		c-0.02-0.01-0.05-0.08-0.01-0.14l25.42-22.38C310.45,189.01,310.47,189,310.5,189 M310.5,187c-0.49,0-0.98,0.17-1.37,0.52
		l-25.42,22.38c-1.44,1.27-0.54,3.64,1.37,3.64h50.83c1.92,0,2.81-2.37,1.37-3.64l-25.42-22.38C311.48,187.17,310.99,187,310.5,187
		L310.5,187z"/>
</g>
</svg>
